<mxfile host="app.diagrams.net" modified="2023-06-08T09:03:57.387Z" agent="Mozilla/5.0 (Windows NT 10.0; Win64; x64) AppleWebKit/537.36 (KHTML, like Gecko) Chrome/114.0.0.0 Safari/537.36" etag="Gj1eWNVdAviIrP1fZ_bi" version="21.3.6" type="github">
  <diagram name="Pagina-1" id="mVMRGhxlT3Mc3romLue4">
    <mxGraphModel dx="2927" dy="1146" grid="1" gridSize="10" guides="1" tooltips="1" connect="1" arrows="1" fold="1" page="1" pageScale="1" pageWidth="827" pageHeight="1169" background="#ffffff" math="0" shadow="0">
      <root>
        <mxCell id="0" />
        <mxCell id="1" parent="0" />
        <mxCell id="PIYxGtumyjxavmhCKYst-17" style="edgeStyle=orthogonalEdgeStyle;rounded=0;orthogonalLoop=1;jettySize=auto;html=1;exitX=0.5;exitY=1;exitDx=0;exitDy=0;labelBackgroundColor=#FFFFFF;fontStyle=3" parent="1" source="PIYxGtumyjxavmhCKYst-2" edge="1">
          <mxGeometry relative="1" as="geometry">
            <mxPoint x="408.79999999999995" y="420.4" as="targetPoint" />
          </mxGeometry>
        </mxCell>
        <mxCell id="PIYxGtumyjxavmhCKYst-18" value="1...N" style="edgeStyle=orthogonalEdgeStyle;rounded=0;orthogonalLoop=1;jettySize=auto;html=1;exitX=0.5;exitY=1;exitDx=0;exitDy=0;entryX=0.5;entryY=0;entryDx=0;entryDy=0;endArrow=none;endFill=0;labelBackgroundColor=#FFFFFF;fontStyle=3" parent="1" source="PIYxGtumyjxavmhCKYst-2" target="PIYxGtumyjxavmhCKYst-8" edge="1">
          <mxGeometry relative="1" as="geometry">
            <Array as="points" />
          </mxGeometry>
        </mxCell>
        <mxCell id="PIYxGtumyjxavmhCKYst-2" value="Utente" style="whiteSpace=wrap;html=1;align=center;fontSize=12;labelBackgroundColor=#FFFFFF;fontStyle=3" parent="1" vertex="1">
          <mxGeometry x="359" y="380" width="100" height="40" as="geometry" />
        </mxCell>
        <mxCell id="PIYxGtumyjxavmhCKYst-3" value="Prodotto" style="whiteSpace=wrap;html=1;align=center;fontSize=12;labelBackgroundColor=#FFFFFF;fontStyle=3" parent="1" vertex="1">
          <mxGeometry x="359" y="540" width="100" height="40" as="geometry" />
        </mxCell>
        <mxCell id="PIYxGtumyjxavmhCKYst-4" value="Fornitore" style="whiteSpace=wrap;html=1;align=center;fontSize=12;labelBackgroundColor=#FFFFFF;fontStyle=3" parent="1" vertex="1">
          <mxGeometry x="359" y="700" width="100" height="40" as="geometry" />
        </mxCell>
        <mxCell id="PIYxGtumyjxavmhCKYst-7" value="Ordine" style="whiteSpace=wrap;html=1;align=center;fontSize=12;labelBackgroundColor=#FFFFFF;fontStyle=3" parent="1" vertex="1">
          <mxGeometry x="649" y="380" width="100" height="40" as="geometry" />
        </mxCell>
        <mxCell id="PIYxGtumyjxavmhCKYst-8" value="ha visualizzato" style="shape=rhombus;perimeter=rhombusPerimeter;whiteSpace=wrap;html=1;align=center;fontSize=12;labelBackgroundColor=#FFFFFF;fontStyle=3" parent="1" vertex="1">
          <mxGeometry x="384" y="460" width="50" height="40" as="geometry" />
        </mxCell>
        <mxCell id="PIYxGtumyjxavmhCKYst-9" value="crea" style="shape=rhombus;perimeter=rhombusPerimeter;whiteSpace=wrap;html=1;align=center;fontSize=12;labelBackgroundColor=#FFFFFF;fontStyle=3" parent="1" vertex="1">
          <mxGeometry x="529" y="380" width="50" height="40" as="geometry" />
        </mxCell>
        <mxCell id="PIYxGtumyjxavmhCKYst-10" value="vende" style="shape=rhombus;perimeter=rhombusPerimeter;whiteSpace=wrap;html=1;align=center;fontSize=12;labelBackgroundColor=#FFFFFF;fontStyle=3" parent="1" vertex="1">
          <mxGeometry x="384" y="620" width="50" height="40" as="geometry" />
        </mxCell>
        <mxCell id="PIYxGtumyjxavmhCKYst-12" value="1...N" style="line;strokeWidth=1;rotatable=0;dashed=0;labelPosition=center;align=center;verticalAlign=middle;spacingTop=0;spacingLeft=6;points=[];portConstraint=eastwest;verticalLabelPosition=middle;labelBackgroundColor=#FFFFFF;fontStyle=3" parent="1" vertex="1">
          <mxGeometry x="459" y="395" width="70" height="10" as="geometry" />
        </mxCell>
        <mxCell id="PIYxGtumyjxavmhCKYst-13" value="1...1" style="line;strokeWidth=1;rotatable=0;dashed=0;labelPosition=center;align=center;verticalAlign=middle;spacingTop=0;spacingLeft=6;points=[];portConstraint=eastwest;verticalLabelPosition=middle;labelBackgroundColor=#FFFFFF;fontStyle=3" parent="1" vertex="1">
          <mxGeometry x="578" y="395" width="70" height="10" as="geometry" />
        </mxCell>
        <mxCell id="PIYxGtumyjxavmhCKYst-19" style="edgeStyle=orthogonalEdgeStyle;rounded=0;orthogonalLoop=1;jettySize=auto;html=1;exitX=0.5;exitY=1;exitDx=0;exitDy=0;entryX=0.5;entryY=0;entryDx=0;entryDy=0;endArrow=none;endFill=0;labelBackgroundColor=#FFFFFF;fontStyle=3" parent="1" edge="1">
          <mxGeometry relative="1" as="geometry">
            <mxPoint x="408.9" y="500" as="sourcePoint" />
            <mxPoint x="408.9" y="540" as="targetPoint" />
            <Array as="points">
              <mxPoint x="408.9" y="510" />
              <mxPoint x="408.9" y="510" />
            </Array>
          </mxGeometry>
        </mxCell>
        <mxCell id="e78Rjk-EZabSFZOPix0m-12" value="1...N" style="edgeLabel;html=1;align=center;verticalAlign=middle;resizable=0;points=[];labelBackgroundColor=#FFFFFF;fontStyle=3" parent="PIYxGtumyjxavmhCKYst-19" vertex="1" connectable="0">
          <mxGeometry x="-0.2584" y="1" relative="1" as="geometry">
            <mxPoint as="offset" />
          </mxGeometry>
        </mxCell>
        <mxCell id="PIYxGtumyjxavmhCKYst-20" style="edgeStyle=orthogonalEdgeStyle;rounded=0;orthogonalLoop=1;jettySize=auto;html=1;exitX=0.5;exitY=1;exitDx=0;exitDy=0;entryX=0.5;entryY=0;entryDx=0;entryDy=0;endArrow=none;endFill=0;labelBackgroundColor=#FFFFFF;fontStyle=3" parent="1" edge="1">
          <mxGeometry relative="1" as="geometry">
            <mxPoint x="408.84000000000003" y="580" as="sourcePoint" />
            <mxPoint x="408.84000000000003" y="620" as="targetPoint" />
            <Array as="points">
              <mxPoint x="408.84000000000003" y="590" />
              <mxPoint x="408.84000000000003" y="590" />
            </Array>
          </mxGeometry>
        </mxCell>
        <mxCell id="e78Rjk-EZabSFZOPix0m-13" value="1...N" style="edgeLabel;html=1;align=center;verticalAlign=middle;resizable=0;points=[];labelBackgroundColor=#FFFFFF;fontStyle=3" parent="PIYxGtumyjxavmhCKYst-20" vertex="1" connectable="0">
          <mxGeometry x="0.2189" relative="1" as="geometry">
            <mxPoint as="offset" />
          </mxGeometry>
        </mxCell>
        <mxCell id="0Rq2GvU38A9RxJDCwd3Y-1" value="contiene" style="shape=rhombus;perimeter=rhombusPerimeter;whiteSpace=wrap;html=1;align=center;fontSize=12;labelBackgroundColor=#FFFFFF;fontStyle=3" parent="1" vertex="1">
          <mxGeometry x="674" y="539.5" width="50" height="40" as="geometry" />
        </mxCell>
        <mxCell id="0Rq2GvU38A9RxJDCwd3Y-2" style="edgeStyle=orthogonalEdgeStyle;rounded=0;orthogonalLoop=1;jettySize=auto;html=1;endArrow=none;endFill=0;labelBackgroundColor=#FFFFFF;fontStyle=3" parent="1" edge="1">
          <mxGeometry relative="1" as="geometry">
            <mxPoint x="698.71" y="420" as="sourcePoint" />
            <mxPoint x="698.71" y="540" as="targetPoint" />
            <Array as="points">
              <mxPoint x="698.71" y="490" />
            </Array>
          </mxGeometry>
        </mxCell>
        <mxCell id="e78Rjk-EZabSFZOPix0m-14" value="1...N" style="edgeLabel;html=1;align=center;verticalAlign=middle;resizable=0;points=[];labelBackgroundColor=#FFFFFF;fontStyle=3" parent="0Rq2GvU38A9RxJDCwd3Y-2" vertex="1" connectable="0">
          <mxGeometry x="-0.3667" y="1" relative="1" as="geometry">
            <mxPoint x="-1" y="22" as="offset" />
          </mxGeometry>
        </mxCell>
        <mxCell id="VuH1P2dGyrRGzV6cBEOp-100" style="edgeStyle=orthogonalEdgeStyle;rounded=0;orthogonalLoop=1;jettySize=auto;html=1;entryX=0;entryY=0.5;entryDx=0;entryDy=0;endArrow=none;endFill=0;labelBackgroundColor=#FFFFFF;fontStyle=3" parent="1" source="0Rq2GvU38A9RxJDCwd3Y-4" target="0Rq2GvU38A9RxJDCwd3Y-1" edge="1">
          <mxGeometry relative="1" as="geometry">
            <Array as="points">
              <mxPoint x="650" y="560" />
              <mxPoint x="650" y="560" />
            </Array>
          </mxGeometry>
        </mxCell>
        <mxCell id="0Rq2GvU38A9RxJDCwd3Y-4" value="1...N" style="line;strokeWidth=1;rotatable=0;dashed=0;labelPosition=center;align=center;verticalAlign=middle;spacingTop=0;spacingLeft=6;points=[];portConstraint=eastwest;verticalLabelPosition=middle;labelBackgroundColor=#FFFFFF;fontStyle=3" parent="1" vertex="1">
          <mxGeometry x="460" y="554.5" width="199" height="10" as="geometry" />
        </mxCell>
        <mxCell id="e78Rjk-EZabSFZOPix0m-7" style="edgeStyle=orthogonalEdgeStyle;rounded=0;orthogonalLoop=1;jettySize=auto;html=1;exitX=0.5;exitY=1;exitDx=0;exitDy=0;labelBackgroundColor=#FFFFFF;fontStyle=3" parent="1" source="e78Rjk-EZabSFZOPix0m-8" edge="1">
          <mxGeometry relative="1" as="geometry">
            <mxPoint x="119.79999999999995" y="579.9" as="targetPoint" />
          </mxGeometry>
        </mxCell>
        <mxCell id="e78Rjk-EZabSFZOPix0m-8" value="Categoria" style="whiteSpace=wrap;html=1;align=center;fontSize=12;labelBackgroundColor=#FFFFFF;fontStyle=3" parent="1" vertex="1">
          <mxGeometry x="70" y="539.5" width="100" height="40" as="geometry" />
        </mxCell>
        <mxCell id="e78Rjk-EZabSFZOPix0m-9" value="" style="shape=rhombus;perimeter=rhombusPerimeter;whiteSpace=wrap;html=1;align=center;fontSize=12;fontStyle=3" parent="1" vertex="1">
          <mxGeometry x="-123.5" y="1380" width="52" height="40" as="geometry" />
        </mxCell>
        <mxCell id="e78Rjk-EZabSFZOPix0m-10" value="1...N" style="line;strokeWidth=1;rotatable=0;dashed=0;labelPosition=center;align=center;verticalAlign=middle;spacingTop=0;spacingLeft=6;points=[];portConstraint=eastwest;verticalLabelPosition=middle;fontStyle=3" parent="1" vertex="1">
          <mxGeometry x="-195" y="1395" width="71.5" height="10" as="geometry" />
        </mxCell>
        <mxCell id="e78Rjk-EZabSFZOPix0m-11" value="1...1" style="line;strokeWidth=1;rotatable=0;dashed=0;labelPosition=center;align=center;verticalAlign=middle;spacingTop=0;spacingLeft=6;points=[];portConstraint=eastwest;verticalLabelPosition=middle;fontStyle=3" parent="1" vertex="1">
          <mxGeometry x="-74.5" y="1395" width="70" height="10" as="geometry" />
        </mxCell>
        <mxCell id="VuH1P2dGyrRGzV6cBEOp-102" style="edgeStyle=orthogonalEdgeStyle;rounded=0;orthogonalLoop=1;jettySize=auto;html=1;exitX=0.5;exitY=1;exitDx=0;exitDy=0;fontStyle=3" parent="1" edge="1">
          <mxGeometry relative="1" as="geometry">
            <mxPoint x="80.29999999999995" y="1170.4" as="targetPoint" />
            <mxPoint x="80.5" y="1170" as="sourcePoint" />
          </mxGeometry>
        </mxCell>
        <mxCell id="VuH1P2dGyrRGzV6cBEOp-103" value="1...1" style="edgeStyle=orthogonalEdgeStyle;rounded=0;orthogonalLoop=1;jettySize=auto;html=1;entryX=0.5;entryY=0;entryDx=0;entryDy=0;endArrow=none;endFill=0;fontStyle=3;exitX=0.468;exitY=0.995;exitDx=0;exitDy=0;exitPerimeter=0;" parent="1" target="VuH1P2dGyrRGzV6cBEOp-104" edge="1" source="C5PoLODvA13gKRFwnGhj-10">
          <mxGeometry relative="1" as="geometry">
            <Array as="points">
              <mxPoint x="80" y="1120" />
              <mxPoint x="81" y="1120" />
            </Array>
            <mxPoint x="80.51999999999998" y="1070.54" as="sourcePoint" />
          </mxGeometry>
        </mxCell>
        <mxCell id="VuH1P2dGyrRGzV6cBEOp-104" value="" style="shape=rhombus;perimeter=rhombusPerimeter;whiteSpace=wrap;html=1;align=center;fontSize=12;fontStyle=3" parent="1" vertex="1">
          <mxGeometry x="55.5" y="1180" width="50" height="40" as="geometry" />
        </mxCell>
        <mxCell id="VuH1P2dGyrRGzV6cBEOp-105" style="edgeStyle=orthogonalEdgeStyle;rounded=0;orthogonalLoop=1;jettySize=auto;html=1;exitX=0.5;exitY=1;exitDx=0;exitDy=0;entryX=0.5;entryY=0;entryDx=0;entryDy=0;endArrow=none;endFill=0;fontStyle=3" parent="1" source="VuH1P2dGyrRGzV6cBEOp-104" target="C5PoLODvA13gKRFwnGhj-8" edge="1">
          <mxGeometry relative="1" as="geometry">
            <mxPoint x="80.39999999999998" y="1250" as="sourcePoint" />
            <mxPoint x="80" y="1280.0000000000005" as="targetPoint" />
            <Array as="points" />
          </mxGeometry>
        </mxCell>
        <mxCell id="VuH1P2dGyrRGzV6cBEOp-106" value="0...N" style="edgeLabel;html=1;align=center;verticalAlign=middle;resizable=0;points=[];fontStyle=3" parent="VuH1P2dGyrRGzV6cBEOp-105" vertex="1" connectable="0">
          <mxGeometry x="-0.2584" y="1" relative="1" as="geometry">
            <mxPoint x="-1" y="19" as="offset" />
          </mxGeometry>
        </mxCell>
        <mxCell id="VuH1P2dGyrRGzV6cBEOp-112" style="edgeStyle=orthogonalEdgeStyle;rounded=0;orthogonalLoop=1;jettySize=auto;html=1;exitX=0.5;exitY=1;exitDx=0;exitDy=0;entryX=0.5;entryY=0;entryDx=0;entryDy=0;endArrow=none;endFill=0;labelBackgroundColor=#FFFFFF;fontStyle=3" parent="1" edge="1">
          <mxGeometry relative="1" as="geometry">
            <mxPoint x="408.84000000000003" y="660" as="sourcePoint" />
            <mxPoint x="408.84000000000003" y="700" as="targetPoint" />
            <Array as="points">
              <mxPoint x="408.84000000000003" y="670" />
              <mxPoint x="408.84000000000003" y="670" />
            </Array>
          </mxGeometry>
        </mxCell>
        <mxCell id="VuH1P2dGyrRGzV6cBEOp-113" value="1...N" style="edgeLabel;html=1;align=center;verticalAlign=middle;resizable=0;points=[];labelBackgroundColor=#FFFFFF;fontStyle=3" parent="VuH1P2dGyrRGzV6cBEOp-112" vertex="1" connectable="0">
          <mxGeometry x="0.2189" relative="1" as="geometry">
            <mxPoint as="offset" />
          </mxGeometry>
        </mxCell>
        <mxCell id="VuH1P2dGyrRGzV6cBEOp-119" value="" style="shape=rhombus;perimeter=rhombusPerimeter;whiteSpace=wrap;html=1;align=center;fontSize=12;fontStyle=3" parent="1" vertex="1">
          <mxGeometry x="55.5" y="1540" width="52" height="40" as="geometry" />
        </mxCell>
        <mxCell id="VuH1P2dGyrRGzV6cBEOp-120" style="edgeStyle=orthogonalEdgeStyle;rounded=0;orthogonalLoop=1;jettySize=auto;html=1;entryX=0.5;entryY=0;entryDx=0;entryDy=0;endArrow=none;endFill=0;fontStyle=3;exitX=0.5;exitY=1;exitDx=0;exitDy=0;" parent="1" edge="1" source="C5PoLODvA13gKRFwnGhj-8">
          <mxGeometry relative="1" as="geometry">
            <mxPoint x="80.5" y="1460" as="sourcePoint" />
            <mxPoint x="80.34" y="1540" as="targetPoint" />
            <Array as="points" />
          </mxGeometry>
        </mxCell>
        <mxCell id="VuH1P2dGyrRGzV6cBEOp-121" value="0...N" style="edgeLabel;html=1;align=center;verticalAlign=middle;resizable=0;points=[];fontStyle=3" parent="VuH1P2dGyrRGzV6cBEOp-120" vertex="1" connectable="0">
          <mxGeometry x="0.2189" relative="1" as="geometry">
            <mxPoint as="offset" />
          </mxGeometry>
        </mxCell>
        <mxCell id="VuH1P2dGyrRGzV6cBEOp-122" style="edgeStyle=orthogonalEdgeStyle;rounded=0;orthogonalLoop=1;jettySize=auto;html=1;exitX=0.5;exitY=1;exitDx=0;exitDy=0;endArrow=none;endFill=0;fontStyle=3;entryX=0.471;entryY=0.01;entryDx=0;entryDy=0;entryPerimeter=0;" parent="1" target="C5PoLODvA13gKRFwnGhj-7" edge="1">
          <mxGeometry relative="1" as="geometry">
            <mxPoint x="80.34" y="1580" as="sourcePoint" />
            <mxPoint x="80.5" y="1640" as="targetPoint" />
            <Array as="points">
              <mxPoint x="80" y="1600" />
              <mxPoint x="80" y="1600" />
            </Array>
          </mxGeometry>
        </mxCell>
        <mxCell id="VuH1P2dGyrRGzV6cBEOp-123" value="1...1" style="edgeLabel;html=1;align=center;verticalAlign=middle;resizable=0;points=[];fontStyle=3" parent="VuH1P2dGyrRGzV6cBEOp-122" vertex="1" connectable="0">
          <mxGeometry x="0.2189" relative="1" as="geometry">
            <mxPoint y="-13" as="offset" />
          </mxGeometry>
        </mxCell>
        <mxCell id="VuH1P2dGyrRGzV6cBEOp-124" value="appartiene" style="shape=rhombus;perimeter=rhombusPerimeter;whiteSpace=wrap;html=1;align=center;fontSize=12;labelBackgroundColor=#FFFFFF;fontStyle=3" parent="1" vertex="1">
          <mxGeometry x="241.5" y="540" width="50" height="40" as="geometry" />
        </mxCell>
        <mxCell id="VuH1P2dGyrRGzV6cBEOp-125" value="1...N" style="line;strokeWidth=1;rotatable=0;dashed=0;labelPosition=center;align=center;verticalAlign=middle;spacingTop=0;spacingLeft=6;points=[];portConstraint=eastwest;verticalLabelPosition=middle;labelBackgroundColor=#FFFFFF;fontStyle=3" parent="1" vertex="1">
          <mxGeometry x="170" y="555" width="71.5" height="10" as="geometry" />
        </mxCell>
        <mxCell id="VuH1P2dGyrRGzV6cBEOp-126" value="1...1" style="line;strokeWidth=1;rotatable=0;dashed=0;labelPosition=center;align=center;verticalAlign=middle;spacingTop=0;spacingLeft=6;points=[];portConstraint=eastwest;verticalLabelPosition=middle;labelBackgroundColor=#FFFFFF;fontStyle=3" parent="1" vertex="1">
          <mxGeometry x="290.5" y="555" width="70" height="10" as="geometry" />
        </mxCell>
        <mxCell id="VuH1P2dGyrRGzV6cBEOp-194" style="edgeStyle=orthogonalEdgeStyle;rounded=0;orthogonalLoop=1;jettySize=auto;html=1;exitX=1;exitY=0.5;exitDx=0;exitDy=0;endArrow=none;endFill=0;fontStyle=3;entryX=0;entryY=0.5;entryDx=0;entryDy=0;" parent="1" source="VuH1P2dGyrRGzV6cBEOp-191" edge="1" target="C5PoLODvA13gKRFwnGhj-6">
          <mxGeometry relative="1" as="geometry">
            <mxPoint x="79.84" y="1930" as="sourcePoint" />
            <mxPoint x="374" y="1740" as="targetPoint" />
            <Array as="points">
              <mxPoint x="360" y="1734" />
              <mxPoint x="360" y="1734" />
            </Array>
          </mxGeometry>
        </mxCell>
        <mxCell id="VuH1P2dGyrRGzV6cBEOp-195" value="0...N" style="edgeLabel;html=1;align=center;verticalAlign=middle;resizable=0;points=[];fontStyle=3" parent="VuH1P2dGyrRGzV6cBEOp-194" vertex="1" connectable="0">
          <mxGeometry x="0.2189" relative="1" as="geometry">
            <mxPoint x="-12" as="offset" />
          </mxGeometry>
        </mxCell>
        <mxCell id="VuH1P2dGyrRGzV6cBEOp-222" value="" style="shape=rhombus;perimeter=rhombusPerimeter;whiteSpace=wrap;html=1;align=center;fontSize=12;fontStyle=3" parent="1" vertex="1">
          <mxGeometry x="825" y="1000" width="52" height="40" as="geometry" />
        </mxCell>
        <mxCell id="VuH1P2dGyrRGzV6cBEOp-225" style="edgeStyle=orthogonalEdgeStyle;rounded=0;orthogonalLoop=1;jettySize=auto;html=1;exitX=0.5;exitY=1;exitDx=0;exitDy=0;fontStyle=3" parent="1" edge="1">
          <mxGeometry relative="1" as="geometry">
            <mxPoint x="251.29999999999995" y="880.4" as="targetPoint" />
            <mxPoint x="251.5" y="880" as="sourcePoint" />
          </mxGeometry>
        </mxCell>
        <mxCell id="VuH1P2dGyrRGzV6cBEOp-227" value="" style="shape=rhombus;perimeter=rhombusPerimeter;whiteSpace=wrap;html=1;align=center;fontSize=12;fontStyle=3" parent="1" vertex="1">
          <mxGeometry x="238.5" y="1000" width="52" height="40" as="geometry" />
        </mxCell>
        <mxCell id="VuH1P2dGyrRGzV6cBEOp-280" style="edgeStyle=orthogonalEdgeStyle;rounded=0;orthogonalLoop=1;jettySize=auto;html=1;exitX=0.5;exitY=1;exitDx=0;exitDy=0;fontStyle=3" parent="1" edge="1">
          <mxGeometry relative="1" as="geometry">
            <mxPoint x="450.79999999999995" y="1346.51" as="targetPoint" />
            <mxPoint x="451" y="1346.1100000000001" as="sourcePoint" />
          </mxGeometry>
        </mxCell>
        <mxCell id="VuH1P2dGyrRGzV6cBEOp-281" value="1...N" style="edgeStyle=orthogonalEdgeStyle;rounded=0;orthogonalLoop=1;jettySize=auto;html=1;entryX=1;entryY=0.5;entryDx=0;entryDy=0;endArrow=none;endFill=0;fontStyle=3;exitX=0;exitY=0.668;exitDx=0;exitDy=0;exitPerimeter=0;" parent="1" target="VuH1P2dGyrRGzV6cBEOp-282" edge="1">
          <mxGeometry x="0.0879" relative="1" as="geometry">
            <Array as="points">
              <mxPoint x="720" y="1400" />
            </Array>
            <mxPoint x="760" y="1400.04" as="sourcePoint" />
            <mxPoint as="offset" />
          </mxGeometry>
        </mxCell>
        <mxCell id="VuH1P2dGyrRGzV6cBEOp-282" value="" style="shape=rhombus;perimeter=rhombusPerimeter;whiteSpace=wrap;html=1;align=center;fontSize=12;fontStyle=3" parent="1" vertex="1">
          <mxGeometry x="630" y="1380.0000000000002" width="52" height="40" as="geometry" />
        </mxCell>
        <mxCell id="VuH1P2dGyrRGzV6cBEOp-283" style="edgeStyle=orthogonalEdgeStyle;rounded=0;orthogonalLoop=1;jettySize=auto;html=1;endArrow=none;endFill=0;fontStyle=3;exitX=0;exitY=0.5;exitDx=0;exitDy=0;entryX=1;entryY=0.5;entryDx=0;entryDy=0;" parent="1" source="VuH1P2dGyrRGzV6cBEOp-282" target="C5PoLODvA13gKRFwnGhj-4" edge="1">
          <mxGeometry relative="1" as="geometry">
            <mxPoint x="451" y="1590" as="sourcePoint" />
            <mxPoint x="560" y="1400" as="targetPoint" />
            <Array as="points" />
          </mxGeometry>
        </mxCell>
        <mxCell id="VuH1P2dGyrRGzV6cBEOp-303" value="" style="edgeStyle=orthogonalEdgeStyle;rounded=0;orthogonalLoop=1;jettySize=auto;html=1;entryX=0;entryY=0.5;entryDx=0;entryDy=0;endArrow=none;endFill=0;fontStyle=3;exitX=1.002;exitY=0.14;exitDx=0;exitDy=0;exitPerimeter=0;" parent="1" target="VuH1P2dGyrRGzV6cBEOp-191" edge="1">
          <mxGeometry relative="1" as="geometry">
            <mxPoint x="170.85999999999967" y="1734.1999999999998" as="sourcePoint" />
            <mxPoint x="79.84" y="1890" as="targetPoint" />
            <Array as="points" />
          </mxGeometry>
        </mxCell>
        <mxCell id="VuH1P2dGyrRGzV6cBEOp-359" value="1...1" style="edgeLabel;html=1;align=center;verticalAlign=middle;resizable=0;points=[];fontStyle=3" parent="VuH1P2dGyrRGzV6cBEOp-303" vertex="1" connectable="0">
          <mxGeometry x="0.0803" y="-2" relative="1" as="geometry">
            <mxPoint as="offset" />
          </mxGeometry>
        </mxCell>
        <mxCell id="VuH1P2dGyrRGzV6cBEOp-191" value="" style="shape=rhombus;perimeter=rhombusPerimeter;whiteSpace=wrap;html=1;align=center;fontSize=12;fontStyle=3" parent="1" vertex="1">
          <mxGeometry x="251" y="1714" width="52" height="40" as="geometry" />
        </mxCell>
        <mxCell id="VuH1P2dGyrRGzV6cBEOp-353" value="Fascia di spesa" style="whiteSpace=wrap;html=1;align=center;fontSize=12;labelBackgroundColor=#FFFFFF;fontStyle=3" parent="1" vertex="1">
          <mxGeometry x="70" y="700" width="100" height="40" as="geometry" />
        </mxCell>
        <mxCell id="VuH1P2dGyrRGzV6cBEOp-354" value="definisce" style="shape=rhombus;perimeter=rhombusPerimeter;whiteSpace=wrap;html=1;align=center;fontSize=12;labelBackgroundColor=#FFFFFF;fontStyle=3" parent="1" vertex="1">
          <mxGeometry x="227.5" y="700" width="50" height="40" as="geometry" />
        </mxCell>
        <mxCell id="VuH1P2dGyrRGzV6cBEOp-355" value="1...N" style="line;strokeWidth=1;rotatable=0;dashed=0;labelPosition=center;align=center;verticalAlign=middle;spacingTop=0;spacingLeft=6;points=[];portConstraint=eastwest;verticalLabelPosition=middle;labelBackgroundColor=#FFFFFF;fontStyle=3" parent="1" vertex="1">
          <mxGeometry x="170" y="715" width="60" height="10" as="geometry" />
        </mxCell>
        <mxCell id="VuH1P2dGyrRGzV6cBEOp-356" value="1...1" style="line;strokeWidth=1;rotatable=0;dashed=0;labelPosition=center;align=center;verticalAlign=middle;spacingTop=0;spacingLeft=6;points=[];portConstraint=eastwest;verticalLabelPosition=middle;labelBackgroundColor=#FFFFFF;fontStyle=3" parent="1" vertex="1">
          <mxGeometry x="280" y="715" width="79" height="10" as="geometry" />
        </mxCell>
        <mxCell id="VuH1P2dGyrRGzV6cBEOp-363" value="1...1" style="edgeStyle=orthogonalEdgeStyle;rounded=0;orthogonalLoop=1;jettySize=auto;html=1;endArrow=none;endFill=0;fontStyle=3;entryX=0.53;entryY=-0.034;entryDx=0;entryDy=0;exitX=0.5;exitY=1;exitDx=0;exitDy=0;entryPerimeter=0;" parent="1" source="VuH1P2dGyrRGzV6cBEOp-222" target="C5PoLODvA13gKRFwnGhj-3" edge="1">
          <mxGeometry x="-0.0974" relative="1" as="geometry">
            <Array as="points">
              <mxPoint x="850" y="1362" />
            </Array>
            <mxPoint x="910" y="1020" as="sourcePoint" />
            <mxPoint x="850" y="1260" as="targetPoint" />
            <mxPoint as="offset" />
          </mxGeometry>
        </mxCell>
        <mxCell id="VuH1P2dGyrRGzV6cBEOp-365" style="edgeStyle=orthogonalEdgeStyle;rounded=0;orthogonalLoop=1;jettySize=auto;html=1;entryX=0;entryY=0.5;entryDx=0;entryDy=0;endArrow=none;endFill=0;fontStyle=3;" parent="1" source="C5PoLODvA13gKRFwnGhj-1" target="VuH1P2dGyrRGzV6cBEOp-222" edge="1">
          <mxGeometry relative="1" as="geometry">
            <mxPoint x="560" y="1020" as="sourcePoint" />
            <mxPoint x="444.18999999999994" y="1170" as="targetPoint" />
            <Array as="points" />
          </mxGeometry>
        </mxCell>
        <mxCell id="VuH1P2dGyrRGzV6cBEOp-366" value="0...N" style="edgeLabel;html=1;align=center;verticalAlign=middle;resizable=0;points=[];fontStyle=3" parent="VuH1P2dGyrRGzV6cBEOp-365" vertex="1" connectable="0">
          <mxGeometry x="-0.2584" y="1" relative="1" as="geometry">
            <mxPoint x="22" y="1" as="offset" />
          </mxGeometry>
        </mxCell>
        <mxCell id="VuH1P2dGyrRGzV6cBEOp-367" value="1:1" style="line;strokeWidth=1;rotatable=0;dashed=0;labelPosition=center;align=center;verticalAlign=middle;spacingTop=0;spacingLeft=6;points=[];portConstraint=eastwest;verticalLabelPosition=middle;fontStyle=3" parent="1" vertex="1">
          <mxGeometry x="170" y="1015" width="70" height="10" as="geometry" />
        </mxCell>
        <mxCell id="VuH1P2dGyrRGzV6cBEOp-368" value="0...N" style="line;strokeWidth=1;rotatable=0;dashed=0;labelPosition=center;align=center;verticalAlign=middle;spacingTop=0;spacingLeft=6;points=[];portConstraint=eastwest;verticalLabelPosition=middle;fontStyle=3" parent="1" vertex="1">
          <mxGeometry x="290" y="1015" width="100" height="10" as="geometry" />
        </mxCell>
        <mxCell id="CA0SmJXJ0pppFDX2EZYE-2" style="edgeStyle=orthogonalEdgeStyle;rounded=0;orthogonalLoop=1;jettySize=auto;html=1;endArrow=none;endFill=0;fontStyle=3;entryX=1;entryY=0.514;entryDx=0;entryDy=0;entryPerimeter=0;" parent="1" source="VuH1P2dGyrRGzV6cBEOp-360" target="C5PoLODvA13gKRFwnGhj-8" edge="1">
          <mxGeometry relative="1" as="geometry">
            <mxPoint x="270.36" y="1389" as="sourcePoint" />
            <mxPoint x="170" y="1400" as="targetPoint" />
            <Array as="points" />
          </mxGeometry>
        </mxCell>
        <mxCell id="CA0SmJXJ0pppFDX2EZYE-3" value="0...N" style="edgeLabel;html=1;align=center;verticalAlign=middle;resizable=0;points=[];fontStyle=3" parent="CA0SmJXJ0pppFDX2EZYE-2" vertex="1" connectable="0">
          <mxGeometry x="0.2189" relative="1" as="geometry">
            <mxPoint x="2" as="offset" />
          </mxGeometry>
        </mxCell>
        <mxCell id="VuH1P2dGyrRGzV6cBEOp-360" value="" style="shape=rhombus;perimeter=rhombusPerimeter;whiteSpace=wrap;html=1;align=center;fontSize=12;fontStyle=3" parent="1" vertex="1">
          <mxGeometry x="251" y="1380" width="52" height="40" as="geometry" />
        </mxCell>
        <mxCell id="CA0SmJXJ0pppFDX2EZYE-6" style="edgeStyle=orthogonalEdgeStyle;rounded=0;orthogonalLoop=1;jettySize=auto;html=1;endArrow=none;endFill=0;fontStyle=3;exitX=1;exitY=0.5;exitDx=0;exitDy=0;entryX=0;entryY=0.5;entryDx=0;entryDy=0;" parent="1" source="VuH1P2dGyrRGzV6cBEOp-360" edge="1" target="C5PoLODvA13gKRFwnGhj-4">
          <mxGeometry relative="1" as="geometry">
            <mxPoint x="461" y="1570" as="sourcePoint" />
            <mxPoint x="380" y="1400" as="targetPoint" />
            <Array as="points" />
          </mxGeometry>
        </mxCell>
        <mxCell id="CA0SmJXJ0pppFDX2EZYE-7" value="1...1" style="edgeLabel;html=1;align=center;verticalAlign=middle;resizable=0;points=[];fontStyle=3" parent="CA0SmJXJ0pppFDX2EZYE-6" vertex="1" connectable="0">
          <mxGeometry x="-0.2584" y="1" relative="1" as="geometry">
            <mxPoint as="offset" />
          </mxGeometry>
        </mxCell>
        <mxCell id="CA0SmJXJ0pppFDX2EZYE-12" value="1...1" style="edgeLabel;html=1;align=center;verticalAlign=middle;resizable=0;points=[];fontStyle=3" parent="1" vertex="1" connectable="0">
          <mxGeometry x="599.9991606618934" y="1398.9961092386056" as="geometry" />
        </mxCell>
        <mxCell id="eCPFnm86FGFGZrDisA-r-18" style="edgeStyle=orthogonalEdgeStyle;rounded=0;orthogonalLoop=1;jettySize=auto;html=1;endArrow=none;endFill=0;fontStyle=3;entryX=1;entryY=0.5;entryDx=0;entryDy=0;" parent="1" source="eCPFnm86FGFGZrDisA-r-20" edge="1" target="C5PoLODvA13gKRFwnGhj-6">
          <mxGeometry relative="1" as="geometry">
            <mxPoint x="666.36" y="1722.5" as="sourcePoint" />
            <mxPoint x="566" y="1733.5" as="targetPoint" />
            <Array as="points" />
          </mxGeometry>
        </mxCell>
        <mxCell id="eCPFnm86FGFGZrDisA-r-19" value="0...N" style="edgeLabel;html=1;align=center;verticalAlign=middle;resizable=0;points=[];fontStyle=3" parent="eCPFnm86FGFGZrDisA-r-18" vertex="1" connectable="0">
          <mxGeometry x="0.2189" relative="1" as="geometry">
            <mxPoint x="2" as="offset" />
          </mxGeometry>
        </mxCell>
        <mxCell id="eCPFnm86FGFGZrDisA-r-20" value="" style="shape=rhombus;perimeter=rhombusPerimeter;whiteSpace=wrap;html=1;align=center;fontSize=12;fontStyle=3" parent="1" vertex="1">
          <mxGeometry x="640" y="1714" width="52" height="40" as="geometry" />
        </mxCell>
        <mxCell id="eCPFnm86FGFGZrDisA-r-21" style="edgeStyle=orthogonalEdgeStyle;rounded=0;orthogonalLoop=1;jettySize=auto;html=1;endArrow=none;endFill=0;fontStyle=3;exitX=1;exitY=0.5;exitDx=0;exitDy=0;entryX=0.002;entryY=0.633;entryDx=0;entryDy=0;entryPerimeter=0;" parent="1" source="eCPFnm86FGFGZrDisA-r-20" edge="1">
          <mxGeometry relative="1" as="geometry">
            <mxPoint x="857" y="1903.5" as="sourcePoint" />
            <mxPoint x="760.3600000000001" y="1733.9899999999998" as="targetPoint" />
            <Array as="points" />
          </mxGeometry>
        </mxCell>
        <mxCell id="eCPFnm86FGFGZrDisA-r-22" value="1...1" style="edgeLabel;html=1;align=center;verticalAlign=middle;resizable=0;points=[];fontStyle=3" parent="eCPFnm86FGFGZrDisA-r-21" vertex="1" connectable="0">
          <mxGeometry x="-0.2584" y="1" relative="1" as="geometry">
            <mxPoint as="offset" />
          </mxGeometry>
        </mxCell>
        <mxCell id="C5PoLODvA13gKRFwnGhj-1" value="Utente" style="whiteSpace=wrap;html=1;align=center;" vertex="1" parent="1">
          <mxGeometry x="385" y="985" width="170" height="70" as="geometry" />
        </mxCell>
        <mxCell id="C5PoLODvA13gKRFwnGhj-3" value="Ordine" style="whiteSpace=wrap;html=1;align=center;" vertex="1" parent="1">
          <mxGeometry x="760" y="1354" width="170" height="70" as="geometry" />
        </mxCell>
        <mxCell id="C5PoLODvA13gKRFwnGhj-4" value="Dettaglio Ordine" style="whiteSpace=wrap;html=1;align=center;" vertex="1" parent="1">
          <mxGeometry x="384" y="1365" width="170" height="70" as="geometry" />
        </mxCell>
        <mxCell id="C5PoLODvA13gKRFwnGhj-5" value="Fascia di spedizione" style="whiteSpace=wrap;html=1;align=center;" vertex="1" parent="1">
          <mxGeometry x="760" y="1699" width="170" height="70" as="geometry" />
        </mxCell>
        <mxCell id="C5PoLODvA13gKRFwnGhj-6" value="Fornitore" style="whiteSpace=wrap;html=1;align=center;" vertex="1" parent="1">
          <mxGeometry x="385" y="1699" width="170" height="70" as="geometry" />
        </mxCell>
        <mxCell id="C5PoLODvA13gKRFwnGhj-7" value="Prodotto di un fornitore" style="whiteSpace=wrap;html=1;align=center;" vertex="1" parent="1">
          <mxGeometry y="1699" width="170" height="70" as="geometry" />
        </mxCell>
        <mxCell id="C5PoLODvA13gKRFwnGhj-8" value="Prodotto" style="whiteSpace=wrap;html=1;align=center;" vertex="1" parent="1">
          <mxGeometry x="-4.5" y="1364" width="170" height="70" as="geometry" />
        </mxCell>
        <mxCell id="C5PoLODvA13gKRFwnGhj-9" value="Categoria" style="whiteSpace=wrap;html=1;align=center;" vertex="1" parent="1">
          <mxGeometry x="-365" y="1365" width="170" height="70" as="geometry" />
        </mxCell>
        <mxCell id="C5PoLODvA13gKRFwnGhj-10" value="Visualizzazione" style="whiteSpace=wrap;html=1;align=center;" vertex="1" parent="1">
          <mxGeometry y="985" width="170" height="70" as="geometry" />
        </mxCell>
      </root>
    </mxGraphModel>
  </diagram>
</mxfile>
